<?xml version="1.0" encoding="utf-8"?>
<!-- Generator: Adobe Illustrator 17.0.0, SVG Export Plug-In . SVG Version: 6.00 Build 0)  -->
<!DOCTYPE svg PUBLIC "-//W3C//DTD SVG 1.1//EN" "http://www.w3.org/Graphics/SVG/1.1/DTD/svg11.dtd">
<svg version="1.1" id="Layer_1" xmlns="http://www.w3.org/2000/svg" xmlns:xlink="http://www.w3.org/1999/xlink" x="0px" y="0px"
	 width="195px" height="195px" viewBox="0 0 195 195" enable-background="new 0 0 195 195" xml:space="preserve">
<g>
	<g>
		<path fill="#3C3C3B" d="M195,125.184V69.816c0-8.133-3.231-15.933-8.982-21.684L146.868,8.982C141.117,3.231,133.317,0,125.184,0
			H69.816c-8.133,0-15.933,3.231-21.684,8.982L8.982,48.132C3.231,53.883,0,61.683,0,69.816v55.367
			c0,8.133,3.231,15.933,8.982,21.684l39.151,39.151C53.883,191.769,61.683,195,69.816,195h55.367
			c8.133,0,15.933-3.231,21.684-8.982l39.151-39.151C191.769,141.117,195,133.317,195,125.184z"/>
	</g>
	<g>
		<path fill="#FFDD00" d="M154.981,43.267c-0.006-0.082-0.011-0.162-0.025-0.244c-0.014-0.085-0.036-0.166-0.061-0.248
			c-0.014-0.047-0.019-0.094-0.034-0.139c-0.007-0.02-0.02-0.036-0.026-0.056c-0.032-0.082-0.071-0.159-0.112-0.236
			c-0.032-0.062-0.063-0.125-0.099-0.184c-0.04-0.063-0.087-0.119-0.132-0.178c-0.049-0.063-0.097-0.126-0.151-0.182
			c-0.047-0.049-0.098-0.09-0.15-0.134c-0.062-0.055-0.123-0.11-0.191-0.158c-0.055-0.039-0.115-0.069-0.172-0.103
			c-0.071-0.042-0.141-0.084-0.217-0.118c-0.061-0.027-0.123-0.047-0.186-0.068c-0.082-0.028-0.162-0.057-0.247-0.076
			c-0.06-0.014-0.122-0.02-0.182-0.028c-0.092-0.014-0.185-0.026-0.279-0.028c-0.02,0-0.039-0.006-0.058-0.006
			c-0.047,0-0.091,0.012-0.137,0.014c-0.087,0.005-0.173,0.012-0.261,0.026c-0.082,0.014-0.161,0.036-0.241,0.06
			c-0.048,0.014-0.096,0.019-0.144,0.035c-35.574,12.618-73.18,12.618-108.755,0c-0.047-0.016-0.095-0.021-0.141-0.035
			c-0.081-0.023-0.161-0.046-0.244-0.06c-0.084-0.014-0.166-0.02-0.249-0.025c-0.051-0.006-0.098-0.018-0.148-0.018
			c-0.022,0-0.042,0.006-0.063,0.006c-0.086,0.002-0.171,0.014-0.255,0.026c-0.071,0.009-0.141,0.018-0.21,0.033
			c-0.072,0.018-0.14,0.042-0.21,0.065c-0.075,0.025-0.15,0.049-0.221,0.081c-0.063,0.028-0.122,0.065-0.184,0.099
			c-0.069,0.04-0.139,0.076-0.205,0.123c-0.06,0.042-0.113,0.091-0.168,0.139c-0.057,0.049-0.117,0.097-0.169,0.152
			c-0.05,0.054-0.096,0.113-0.141,0.171c-0.049,0.062-0.097,0.122-0.14,0.187c-0.036,0.057-0.067,0.12-0.098,0.181
			c-0.041,0.077-0.081,0.155-0.112,0.237c-0.008,0.02-0.02,0.036-0.027,0.056c-0.016,0.047-0.021,0.094-0.034,0.14
			c-0.023,0.082-0.047,0.162-0.061,0.247c-0.014,0.083-0.02,0.165-0.025,0.248c-0.004,0.05-0.014,0.097-0.014,0.147v51.289
			c0,0.05,0.012,0.097,0.015,0.147c0.005,0.082,0.011,0.165,0.025,0.248c0.014,0.084,0.036,0.165,0.06,0.244
			c0.013,0.048,0.019,0.096,0.035,0.143c0.007,0.021,0.02,0.037,0.027,0.057c0.03,0.081,0.07,0.157,0.109,0.231
			c0.033,0.064,0.063,0.127,0.101,0.186c0.041,0.064,0.089,0.122,0.136,0.182c0.048,0.06,0.092,0.12,0.145,0.174
			c0.053,0.055,0.111,0.102,0.168,0.151c0.055,0.048,0.109,0.097,0.168,0.138c0.067,0.048,0.14,0.086,0.213,0.127
			c0.057,0.032,0.112,0.067,0.171,0.094c0.077,0.035,0.16,0.061,0.242,0.088c0.063,0.02,0.124,0.042,0.188,0.058
			c0.078,0.019,0.159,0.027,0.24,0.037c0.074,0.009,0.147,0.02,0.223,0.022c0.025,0.001,0.049,0.008,0.074,0.008
			c0.056,0,0.11-0.013,0.166-0.018c0.075-0.005,0.148-0.009,0.223-0.022c0.089-0.015,0.172-0.039,0.257-0.063
			c0.046-0.013,0.09-0.018,0.136-0.033c35.574-12.616,73.182-12.616,108.755,0c0.063,0.022,0.125,0.033,0.189,0.049
			c0.053,0.015,0.104,0.032,0.159,0.042c0.145,0.027,0.29,0.044,0.434,0.044c0.007,0,0.014-0.004,0.022-0.004
			c0.21-0.002,0.411-0.039,0.605-0.094c0.048-0.014,0.094-0.027,0.141-0.043c0.198-0.07,0.386-0.157,0.555-0.272
			c0.016-0.012,0.028-0.025,0.044-0.036c0.159-0.116,0.298-0.252,0.423-0.403c0.028-0.034,0.058-0.067,0.084-0.104
			c0.126-0.171,0.229-0.359,0.306-0.56c0.006-0.015,0.016-0.025,0.022-0.04c0.018-0.047,0.022-0.095,0.035-0.141
			c0.023-0.081,0.046-0.162,0.06-0.245c0.015-0.082,0.02-0.164,0.025-0.245c0.003-0.05,0.015-0.098,0.015-0.15V43.417
			C154.995,43.366,154.985,43.318,154.981,43.267z M151.986,93.409c-12.02-4.008-23.234-6.732-35.519-8.184V52.898
			c12.285-1.452,23.499-4.175,35.519-8.185V93.409z M43.011,44.715c12.02,4.008,23.235,6.732,35.52,8.185v32.329
			c-12.285,1.451-23.5,4.174-35.52,8.184C43.011,93.412,43.011,44.715,43.011,44.715z M81.62,84.693v-31.26
			c5.287,0.472,10.583,0.714,15.88,0.714s10.593-0.24,15.88-0.714v31.261C102.806,83.749,92.193,83.749,81.62,84.693z"/>
		<path fill="#FFDD00" d="M154.993,115.88c-0.001-0.058-0.012-0.113-0.019-0.171c-0.007-0.061-0.011-0.12-0.023-0.181
			c-0.004-0.015-0.006-0.029-0.009-0.044c-0.014-0.055-0.037-0.107-0.057-0.161c-0.021-0.057-0.036-0.113-0.063-0.169
			c-0.006-0.013-0.009-0.026-0.016-0.04c-0.03-0.063-0.075-0.12-0.115-0.181c-0.025-0.036-0.039-0.075-0.067-0.111
			c-0.005-0.007-0.012-0.012-0.016-0.018c-0.007-0.009-0.012-0.018-0.019-0.026c-0.046-0.058-0.104-0.109-0.158-0.164
			c-0.04-0.04-0.075-0.084-0.118-0.121c-0.005-0.004-0.011-0.009-0.015-0.013c-0.043-0.036-0.094-0.065-0.14-0.1
			c-0.064-0.047-0.125-0.097-0.195-0.137c-0.009-0.005-0.02-0.009-0.028-0.015c-0.007-0.004-0.013-0.01-0.021-0.014l-12.787-7.016
			c-1.087-0.597-2.533-0.325-3.23,0.607s-0.379,2.173,0.708,2.769l6.057,3.322H50.33l6.057-3.322
			c1.087-0.596,1.405-1.836,0.708-2.769s-2.141-1.205-3.23-0.607l-12.787,7.016c-0.007,0.004-0.013,0.01-0.021,0.014
			c-0.009,0.006-0.021,0.011-0.03,0.017c-0.064,0.037-0.12,0.084-0.18,0.127c-0.002,0.001-0.005,0.003-0.007,0.005
			c-0.048,0.034-0.101,0.064-0.145,0.102c-0.006,0.005-0.012,0.01-0.018,0.015c-0.042,0.037-0.077,0.081-0.117,0.121
			c-0.001,0.001-0.002,0.002-0.004,0.004c-0.051,0.053-0.109,0.103-0.153,0.158c-0.007,0.009-0.012,0.019-0.019,0.027
			c-0.005,0.006-0.012,0.011-0.016,0.018c-0.028,0.038-0.044,0.079-0.07,0.118c-0.037,0.058-0.079,0.112-0.11,0.173
			c-0.007,0.014-0.012,0.028-0.019,0.042c-0.026,0.057-0.042,0.114-0.062,0.172c-0.019,0.052-0.043,0.103-0.056,0.155
			c-0.004,0.016-0.006,0.031-0.009,0.047c-0.013,0.061-0.016,0.121-0.023,0.182c-0.006,0.056-0.018,0.11-0.018,0.167
			c0,0.008-0.002,0.015-0.002,0.022s0.002,0.015,0.002,0.022c0,0.057,0.012,0.111,0.018,0.167c0.007,0.061,0.009,0.121,0.023,0.182
			c0.004,0.016,0.006,0.031,0.009,0.047c0.013,0.053,0.037,0.104,0.056,0.155c0.02,0.058,0.036,0.115,0.062,0.172
			c0.007,0.014,0.012,0.028,0.019,0.042c0.029,0.061,0.072,0.115,0.11,0.173c0.025,0.039,0.041,0.08,0.07,0.118
			c0.004,0.006,0.011,0.01,0.015,0.015c0.007,0.01,0.013,0.021,0.021,0.03c0.044,0.056,0.101,0.105,0.153,0.158
			c0.046,0.047,0.086,0.097,0.137,0.14c0.014,0.012,0.029,0.021,0.043,0.033c0.035,0.028,0.074,0.049,0.11,0.075
			c0.069,0.049,0.134,0.099,0.209,0.142c0.008,0.004,0.014,0.01,0.021,0.014l12.787,7.016c0.39,0.214,0.826,0.316,1.258,0.316
			c0.77,0,1.525-0.326,1.972-0.924c0.695-0.933,0.379-2.173-0.708-2.769l-6.057-3.321h94.336l-6.057,3.322
			c-1.088,0.596-1.405,1.836-0.708,2.769c0.447,0.598,1.2,0.924,1.972,0.924c0.431,0,0.867-0.102,1.258-0.316l12.787-7.016
			c0.008-0.004,0.014-0.01,0.021-0.014c0.075-0.043,0.141-0.094,0.21-0.143c0.035-0.025,0.075-0.046,0.11-0.073
			c0.014-0.012,0.029-0.022,0.044-0.035c0.046-0.038,0.082-0.084,0.123-0.125c0.057-0.058,0.119-0.112,0.167-0.173
			c0.007-0.01,0.013-0.02,0.02-0.029c0.005-0.005,0.011-0.009,0.015-0.015c0.027-0.036,0.042-0.075,0.067-0.111
			c0.039-0.061,0.083-0.118,0.115-0.181c0.007-0.014,0.011-0.027,0.016-0.04c0.026-0.056,0.042-0.112,0.063-0.169
			c0.02-0.054,0.043-0.106,0.057-0.161c0.004-0.015,0.006-0.029,0.009-0.044c0.013-0.061,0.016-0.12,0.023-0.181
			c0.007-0.058,0.018-0.113,0.019-0.171c0-0.007,0.002-0.014,0.002-0.021S154.993,115.887,154.993,115.88z"/>
	</g>
	<g>
		<path fill="#FFFFFF" d="M85.461,141.3c0,0.121-0.023,0.242-0.07,0.363l-2.716,7.057c-0.122,0.317-0.325,0.571-0.609,0.763
			c-0.285,0.191-0.591,0.287-0.917,0.287h-0.196c-0.327,0-0.632-0.096-0.917-0.287s-0.488-0.445-0.609-0.763l-2.73-7.057
			c-0.047-0.093-0.07-0.214-0.07-0.363c0-0.252,0.096-0.488,0.287-0.707c0.191-0.22,0.446-0.329,0.763-0.329
			c0.214,0,0.415,0.061,0.602,0.182c0.187,0.121,0.317,0.289,0.392,0.503l2.38,6.567l2.366-6.567
			c0.075-0.205,0.203-0.37,0.385-0.496s0.38-0.188,0.595-0.188c0.317,0,0.574,0.104,0.77,0.314
			C85.363,140.788,85.461,141.029,85.461,141.3z"/>
		<path fill="#FFFFFF" d="M88.457,149.482c-0.196,0.191-0.434,0.287-0.714,0.287c-0.271,0-0.501-0.096-0.693-0.287
			s-0.287-0.422-0.287-0.693v-7.546c0-0.271,0.098-0.501,0.294-0.692c0.196-0.191,0.434-0.287,0.714-0.287
			c0.271,0,0.501,0.096,0.693,0.287s0.287,0.422,0.287,0.692v7.546C88.75,149.061,88.652,149.291,88.457,149.482z"/>
		<path fill="#FFFFFF" d="M97.654,146.86c0,0.429-0.077,0.825-0.231,1.188c-0.154,0.364-0.385,0.679-0.693,0.944
			c-0.308,0.266-0.698,0.476-1.169,0.63c-0.472,0.153-1.02,0.23-1.645,0.23c-0.336,0-0.686-0.028-1.05-0.085
			c-0.364-0.056-0.712-0.136-1.043-0.239c-0.332-0.104-0.625-0.23-0.882-0.382c-0.257-0.15-0.451-0.324-0.581-0.521
			c-0.103-0.15-0.154-0.311-0.154-0.48c0-0.271,0.095-0.492,0.287-0.665s0.408-0.259,0.651-0.259c0.093,0,0.187,0.012,0.28,0.035
			s0.177,0.063,0.252,0.119c0.317,0.215,0.672,0.39,1.064,0.524c0.392,0.136,0.817,0.203,1.274,0.203
			c0.271,0,0.509-0.027,0.714-0.083c0.205-0.056,0.375-0.132,0.511-0.229c0.135-0.097,0.236-0.208,0.301-0.333
			c0.065-0.125,0.098-0.252,0.098-0.382c0-0.203-0.077-0.37-0.231-0.499c-0.154-0.13-0.357-0.238-0.609-0.326
			c-0.252-0.089-0.539-0.167-0.861-0.236c-0.322-0.069-0.651-0.151-0.987-0.244c-0.336-0.094-0.665-0.206-0.987-0.337
			c-0.322-0.131-0.609-0.299-0.861-0.504c-0.252-0.206-0.455-0.46-0.609-0.764c-0.154-0.304-0.231-0.675-0.231-1.114
			c0-0.392,0.082-0.759,0.245-1.1c0.163-0.341,0.396-0.643,0.7-0.903c0.303-0.262,0.674-0.468,1.113-0.617
			c0.438-0.149,0.933-0.224,1.484-0.224c0.261,0,0.553,0.021,0.875,0.063c0.322,0.042,0.632,0.108,0.931,0.197
			c0.298,0.089,0.574,0.2,0.826,0.332c0.252,0.131,0.443,0.282,0.574,0.451c0.112,0.142,0.168,0.301,0.168,0.479
			c0,0.272-0.105,0.49-0.316,0.653s-0.438,0.245-0.681,0.245c-0.178,0-0.347-0.047-0.506-0.141
			c-0.328-0.187-0.667-0.321-1.018-0.405c-0.351-0.084-0.7-0.126-1.046-0.126c-0.43,0-0.76,0.086-0.99,0.258
			c-0.229,0.172-0.344,0.396-0.344,0.676c0,0.186,0.077,0.337,0.231,0.453c0.155,0.116,0.358,0.216,0.611,0.299
			c0.252,0.084,0.54,0.161,0.863,0.23c0.323,0.069,0.65,0.151,0.982,0.244c0.332,0.094,0.66,0.208,0.982,0.343
			s0.61,0.308,0.863,0.518c0.252,0.21,0.456,0.467,0.611,0.77C97.577,146.051,97.654,146.422,97.654,146.86z"/>
		<path fill="#FFFFFF" d="M100.692,149.482c-0.196,0.191-0.435,0.287-0.715,0.287c-0.271,0-0.501-0.096-0.692-0.287
			s-0.287-0.422-0.287-0.693v-7.546c0-0.271,0.098-0.501,0.294-0.692s0.434-0.287,0.714-0.287c0.271,0,0.502,0.096,0.693,0.287
			s0.287,0.422,0.287,0.692v7.546C100.986,149.061,100.888,149.291,100.692,149.482z"/>
		<path fill="#FFFFFF" d="M109.806,141.229c0,0.243-0.084,0.448-0.252,0.616s-0.368,0.252-0.602,0.252h-1.946v6.678
			c0,0.271-0.099,0.504-0.296,0.7s-0.438,0.294-0.719,0.294c-0.272,0-0.508-0.098-0.705-0.294s-0.296-0.43-0.296-0.7v-6.678h-1.946
			c-0.243,0-0.448-0.086-0.616-0.259s-0.252-0.386-0.252-0.638c0-0.232,0.084-0.434,0.252-0.602s0.373-0.252,0.616-0.252h5.908
			c0.233,0,0.434,0.086,0.602,0.259S109.806,140.987,109.806,141.229z"/>
		<path fill="#FFFFFF" d="M118.346,148.705c0,0.262-0.096,0.505-0.287,0.729s-0.45,0.336-0.776,0.336
			c-0.215,0-0.411-0.059-0.588-0.175c-0.178-0.117-0.304-0.277-0.379-0.483l-0.363-1.008h-4.004l-0.378,1.008
			c-0.075,0.206-0.203,0.366-0.386,0.483c-0.182,0.116-0.38,0.175-0.595,0.175c-0.317,0-0.572-0.109-0.763-0.329
			c-0.191-0.219-0.287-0.464-0.287-0.735c0-0.148,0.023-0.274,0.07-0.378l2.729-7.014c0.121-0.317,0.324-0.571,0.609-0.763
			c0.284-0.191,0.59-0.287,0.917-0.287c0.354-0.028,0.692,0.054,1.015,0.245s0.548,0.46,0.679,0.805l2.716,7.014
			C118.322,148.468,118.346,148.594,118.346,148.705z M115.406,146.354l-1.456-4.018l-1.456,4.018H115.406z"/>
		<path fill="#FFFFFF" d="M78.139,156.099c0,0.121-0.023,0.242-0.07,0.363l-2.716,7.057c-0.122,0.317-0.325,0.571-0.609,0.763
			c-0.285,0.191-0.591,0.287-0.917,0.287H73.63c-0.327,0-0.632-0.096-0.917-0.287s-0.488-0.445-0.609-0.763l-2.73-7.057
			c-0.047-0.093-0.07-0.214-0.07-0.363c0-0.252,0.096-0.488,0.287-0.707c0.191-0.22,0.446-0.329,0.763-0.329
			c0.214,0,0.415,0.061,0.602,0.182c0.187,0.121,0.317,0.289,0.392,0.503l2.38,6.567l2.366-6.567
			c0.075-0.205,0.203-0.37,0.385-0.496s0.38-0.188,0.595-0.188c0.317,0,0.574,0.104,0.77,0.314
			C78.041,155.588,78.139,155.829,78.139,156.099z"/>
		<path fill="#FFFFFF" d="M81.134,164.282c-0.196,0.191-0.434,0.287-0.714,0.287c-0.271,0-0.501-0.096-0.693-0.287
			s-0.287-0.422-0.287-0.693v-7.546c0-0.271,0.098-0.501,0.294-0.692c0.196-0.191,0.434-0.287,0.714-0.287
			c0.271,0,0.501,0.096,0.693,0.287s0.287,0.422,0.287,0.692v7.546C81.428,163.86,81.33,164.091,81.134,164.282z"/>
		<path fill="#FFFFFF" d="M90.766,158.157c0,0.411-0.059,0.775-0.175,1.092c-0.117,0.317-0.273,0.591-0.469,0.819
			s-0.416,0.415-0.658,0.56c-0.243,0.146-0.49,0.245-0.742,0.302l1.288,2.184c0.084,0.159,0.126,0.317,0.126,0.476
			c0,0.243-0.089,0.468-0.266,0.673s-0.414,0.308-0.712,0.308c-0.177,0-0.34-0.044-0.488-0.133c-0.149-0.089-0.27-0.212-0.363-0.371
			l-1.591-2.898h-1.452v2.422c0,0.271-0.098,0.502-0.294,0.693c-0.196,0.191-0.434,0.287-0.714,0.287
			c-0.271,0-0.501-0.096-0.693-0.287s-0.287-0.422-0.287-0.693v-7.321c0-0.309,0.109-0.572,0.329-0.791
			c0.219-0.22,0.482-0.329,0.79-0.329h3.242c0.484,0,0.92,0.074,1.307,0.224s0.715,0.359,0.985,0.63
			c0.27,0.271,0.478,0.591,0.622,0.959C90.694,157.329,90.766,157.728,90.766,158.157z M87.35,156.897h-2.086v2.52h2.086
			c0.401,0,0.735-0.111,1.001-0.336c0.266-0.224,0.399-0.531,0.399-0.924c0-0.392-0.133-0.7-0.399-0.924
			S87.751,156.897,87.35,156.897z"/>
		<path fill="#FFFFFF" d="M99.109,156.029c0,0.243-0.084,0.448-0.252,0.616s-0.368,0.252-0.602,0.252H96.31v6.678
			c0,0.271-0.099,0.504-0.296,0.7s-0.437,0.294-0.719,0.294c-0.272,0-0.508-0.098-0.705-0.294s-0.296-0.43-0.296-0.7v-6.678h-1.946
			c-0.243,0-0.448-0.086-0.616-0.259s-0.252-0.386-0.252-0.638c0-0.232,0.084-0.434,0.252-0.602s0.373-0.252,0.616-0.252h5.908
			c0.233,0,0.434,0.086,0.602,0.259S99.109,155.787,99.109,156.029z"/>
		<path fill="#FFFFFF" d="M108.454,162.336c-0.172,0.481-0.434,0.895-0.783,1.239c-0.351,0.346-0.789,0.611-1.316,0.798
			s-1.146,0.28-1.854,0.28c-0.71,0-1.328-0.096-1.855-0.287s-0.966-0.457-1.316-0.798c-0.35-0.341-0.611-0.749-0.783-1.225
			c-0.173-0.477-0.26-1.004-0.26-1.582v-4.704c0-0.271,0.099-0.504,0.294-0.7c0.196-0.196,0.439-0.294,0.729-0.294
			c0.271,0,0.504,0.098,0.7,0.295c0.195,0.196,0.294,0.43,0.294,0.701v4.642c0,0.654,0.185,1.186,0.555,1.592
			c0.369,0.407,0.92,0.61,1.65,0.61c0.729,0,1.277-0.203,1.643-0.61c0.365-0.406,0.548-0.938,0.548-1.592v-4.642
			c0-0.271,0.098-0.505,0.292-0.701c0.194-0.197,0.44-0.295,0.737-0.295c0.269,0,0.5,0.098,0.695,0.294
			c0.194,0.196,0.292,0.43,0.292,0.7v4.689C108.714,161.326,108.627,161.855,108.454,162.336z"/>
		<path fill="#FFFFFF" d="M118.346,163.505c0,0.262-0.096,0.505-0.287,0.729s-0.45,0.336-0.777,0.336
			c-0.215,0-0.411-0.059-0.588-0.175c-0.178-0.117-0.304-0.277-0.378-0.483l-0.364-1.008h-4.004l-0.378,1.008
			c-0.075,0.206-0.203,0.366-0.385,0.483c-0.183,0.116-0.381,0.175-0.595,0.175c-0.318,0-0.572-0.109-0.764-0.329
			c-0.191-0.219-0.287-0.464-0.287-0.735c0-0.148,0.023-0.274,0.07-0.378l2.73-7.014c0.121-0.317,0.323-0.571,0.608-0.763
			s0.59-0.287,0.917-0.287c0.354-0.028,0.693,0.054,1.016,0.245c0.321,0.191,0.548,0.46,0.679,0.805l2.716,7.014
			C118.322,163.267,118.346,163.393,118.346,163.505z M115.405,161.153l-1.456-4.018l-1.456,4.018H115.405z"/>
		<path fill="#FFFFFF" d="M125.682,163.589c0,0.253-0.084,0.465-0.252,0.638s-0.369,0.259-0.603,0.259h-4.046
			c-0.308,0-0.571-0.109-0.791-0.329c-0.219-0.219-0.329-0.482-0.329-0.791v-7.322c0-0.271,0.099-0.501,0.294-0.692
			c0.196-0.191,0.435-0.287,0.715-0.287c0.271,0,0.501,0.096,0.692,0.287s0.287,0.422,0.287,0.692v6.692h3.178
			c0.233,0,0.435,0.084,0.603,0.252S125.682,163.356,125.682,163.589z"/>
	</g>
</g>
</svg>
