<?xml version="1.0" encoding="UTF-8"?>
<!-- Generator: Adobe Illustrator 17.0.0, SVG Export Plug-In . SVG Version: 6.00 Build 0)  -->
<svg width="195px" height="195px" enable-background="new 0 0 195 195" version="1.1" viewBox="0 0 195 195" xml:space="preserve" xmlns="http://www.w3.org/2000/svg" xmlns:cc="http://creativecommons.org/ns#" xmlns:dc="http://purl.org/dc/elements/1.1/" xmlns:rdf="http://www.w3.org/1999/02/22-rdf-syntax-ns#"><metadata><rdf:RDF><cc:Work rdf:about=""><dc:format>image/svg+xml</dc:format><dc:type rdf:resource="http://purl.org/dc/dcmitype/StillImage"/><dc:title/></cc:Work></rdf:RDF></metadata>

	
		<path d="m195 125.18v-55.368c0-8.133-3.231-15.933-8.982-21.684l-39.15-39.15c-5.751-5.751-13.551-8.982-21.684-8.982h-55.368c-8.133 0-15.933 3.231-21.684 8.982l-39.15 39.15c-5.751 5.751-8.982 13.551-8.982 21.684v55.367c0 8.133 3.231 15.933 8.982 21.684l39.151 39.151c5.75 5.751 13.55 8.982 21.683 8.982h55.367c8.133 0 15.933-3.231 21.684-8.982l39.151-39.151c5.751-5.75 8.982-13.55 8.982-21.683z" fill="#3c3c3b"/>
	
	<g fill="#fd0">
		<path d="m154.98 43.267c-6e-3 -0.082-0.011-0.162-0.025-0.244-0.014-0.085-0.036-0.166-0.061-0.248-0.014-0.047-0.019-0.094-0.034-0.139-7e-3 -0.02-0.02-0.036-0.026-0.056-0.032-0.082-0.071-0.159-0.112-0.236-0.032-0.062-0.063-0.125-0.099-0.184-0.04-0.063-0.087-0.119-0.132-0.178-0.049-0.063-0.097-0.126-0.151-0.182-0.047-0.049-0.098-0.09-0.15-0.134-0.062-0.055-0.123-0.11-0.191-0.158-0.055-0.039-0.115-0.069-0.172-0.103-0.071-0.042-0.141-0.084-0.217-0.118-0.061-0.027-0.123-0.047-0.186-0.068-0.082-0.028-0.162-0.057-0.247-0.076-0.06-0.014-0.122-0.02-0.182-0.028-0.092-0.014-0.185-0.026-0.279-0.028-0.02 0-0.039-6e-3 -0.058-6e-3 -0.047 0-0.091 0.012-0.137 0.014-0.087 5e-3 -0.173 0.012-0.261 0.026-0.082 0.014-0.161 0.036-0.241 0.06-0.048 0.014-0.096 0.019-0.144 0.035-35.574 12.618-73.18 12.618-108.76 0-0.047-0.016-0.095-0.021-0.141-0.035-0.081-0.023-0.161-0.046-0.244-0.06-0.084-0.014-0.166-0.02-0.249-0.025-0.051-6e-3 -0.098-0.018-0.148-0.018-0.022 0-0.042 6e-3 -0.063 6e-3 -0.086 2e-3 -0.171 0.014-0.255 0.026-0.071 9e-3 -0.141 0.018-0.21 0.033-0.072 0.018-0.14 0.042-0.21 0.065-0.075 0.025-0.15 0.049-0.221 0.081-0.063 0.028-0.122 0.065-0.184 0.099-0.069 0.04-0.139 0.076-0.205 0.123-0.06 0.042-0.113 0.091-0.168 0.139-0.057 0.049-0.117 0.097-0.169 0.152-0.05 0.054-0.096 0.113-0.141 0.171-0.049 0.062-0.097 0.122-0.14 0.187-0.036 0.057-0.067 0.12-0.098 0.181-0.041 0.077-0.081 0.155-0.112 0.237-8e-3 0.02-0.02 0.036-0.027 0.056-0.016 0.047-0.021 0.094-0.034 0.14-0.023 0.082-0.047 0.162-0.061 0.247-0.014 0.083-0.02 0.165-0.025 0.248-4e-3 0.05-0.014 0.097-0.014 0.147v51.289c0 0.05 0.012 0.097 0.015 0.147 5e-3 0.082 0.011 0.165 0.025 0.248 0.014 0.084 0.036 0.165 0.06 0.244 0.013 0.048 0.019 0.096 0.035 0.143 7e-3 0.021 0.02 0.037 0.027 0.057 0.03 0.081 0.07 0.157 0.109 0.231 0.033 0.064 0.063 0.127 0.101 0.186 0.041 0.064 0.089 0.122 0.136 0.182 0.048 0.06 0.092 0.12 0.145 0.174 0.053 0.055 0.111 0.102 0.168 0.151 0.055 0.048 0.109 0.097 0.168 0.138 0.067 0.048 0.14 0.086 0.213 0.127 0.057 0.032 0.112 0.067 0.171 0.094 0.077 0.035 0.16 0.061 0.242 0.088 0.063 0.02 0.124 0.042 0.188 0.058 0.078 0.019 0.159 0.027 0.24 0.037 0.074 9e-3 0.147 0.02 0.223 0.022 0.025 1e-3 0.049 8e-3 0.074 8e-3 0.056 0 0.11-0.013 0.166-0.018 0.075-5e-3 0.148-9e-3 0.223-0.022 0.089-0.015 0.172-0.039 0.257-0.063 0.046-0.013 0.09-0.018 0.136-0.033 35.574-12.616 73.182-12.616 108.76 0 0.063 0.022 0.125 0.033 0.189 0.049 0.053 0.015 0.104 0.032 0.159 0.042 0.145 0.027 0.29 0.044 0.434 0.044 7e-3 0 0.014-4e-3 0.022-4e-3 0.21-2e-3 0.411-0.039 0.605-0.094 0.048-0.014 0.094-0.027 0.141-0.043 0.198-0.07 0.386-0.157 0.555-0.272 0.016-0.012 0.028-0.025 0.044-0.036 0.159-0.116 0.298-0.252 0.423-0.403 0.028-0.034 0.058-0.067 0.084-0.104 0.126-0.171 0.229-0.359 0.306-0.56 6e-3 -0.015 0.016-0.025 0.022-0.04 0.018-0.047 0.022-0.095 0.035-0.141 0.023-0.081 0.046-0.162 0.06-0.245 0.015-0.082 0.02-0.164 0.025-0.245 3e-3 -0.05 0.015-0.098 0.015-0.15v-51.285c-3e-3 -0.051-0.013-0.099-0.017-0.15zm-2.995 50.142c-12.02-4.008-23.234-6.732-35.519-8.184v-32.327c12.285-1.452 23.499-4.175 35.519-8.185zm-108.98-48.694c12.02 4.008 23.235 6.732 35.52 8.185v32.329c-12.285 1.451-23.5 4.174-35.52 8.184v-48.698zm38.609 39.978v-31.26c5.287 0.472 10.583 0.714 15.88 0.714s10.593-0.24 15.88-0.714v31.261c-10.574-0.945-21.187-0.945-31.76-1e-3z"/>
		<path d="m154.99 115.88c-1e-3 -0.058-0.012-0.113-0.019-0.171-7e-3 -0.061-0.011-0.12-0.023-0.181-4e-3 -0.015-6e-3 -0.029-9e-3 -0.044-0.014-0.055-0.037-0.107-0.057-0.161-0.021-0.057-0.036-0.113-0.063-0.169-6e-3 -0.013-9e-3 -0.026-0.016-0.04-0.03-0.063-0.075-0.12-0.115-0.181-0.025-0.036-0.039-0.075-0.067-0.111-5e-3 -7e-3 -0.012-0.012-0.016-0.018-7e-3 -9e-3 -0.012-0.018-0.019-0.026-0.046-0.058-0.104-0.109-0.158-0.164-0.04-0.04-0.075-0.084-0.118-0.121-5e-3 -4e-3 -0.011-9e-3 -0.015-0.013-0.043-0.036-0.094-0.065-0.14-0.1-0.064-0.047-0.125-0.097-0.195-0.137-9e-3 -5e-3 -0.02-9e-3 -0.028-0.015-7e-3 -4e-3 -0.013-0.01-0.021-0.014l-12.787-7.016c-1.087-0.597-2.533-0.325-3.23 0.607s-0.379 2.173 0.708 2.769l6.057 3.322h-94.332l6.057-3.322c1.087-0.596 1.405-1.836 0.708-2.769s-2.141-1.205-3.23-0.607l-12.787 7.016c-7e-3 4e-3 -0.013 0.01-0.021 0.014-9e-3 6e-3 -0.021 0.011-0.03 0.017-0.064 0.037-0.12 0.084-0.18 0.127-2e-3 1e-3 -5e-3 3e-3 -7e-3 5e-3 -0.048 0.034-0.101 0.064-0.145 0.102l-0.018 0.015c-0.042 0.037-0.077 0.081-0.117 0.121l-4e-3 4e-3c-0.051 0.053-0.109 0.103-0.153 0.158-7e-3 9e-3 -0.012 0.019-0.019 0.027-5e-3 6e-3 -0.012 0.011-0.016 0.018-0.028 0.038-0.044 0.079-0.07 0.118-0.037 0.058-0.079 0.112-0.11 0.173-7e-3 0.014-0.012 0.028-0.019 0.042-0.026 0.057-0.042 0.114-0.062 0.172-0.019 0.052-0.043 0.103-0.056 0.155-4e-3 0.016-6e-3 0.031-9e-3 0.047-0.013 0.061-0.016 0.121-0.023 0.182-6e-3 0.056-0.018 0.11-0.018 0.167 0 8e-3 -2e-3 0.015-2e-3 0.022s2e-3 0.015 2e-3 0.022c0 0.057 0.012 0.111 0.018 0.167 7e-3 0.061 9e-3 0.121 0.023 0.182 4e-3 0.016 6e-3 0.031 9e-3 0.047 0.013 0.053 0.037 0.104 0.056 0.155 0.02 0.058 0.036 0.115 0.062 0.172 7e-3 0.014 0.012 0.028 0.019 0.042 0.029 0.061 0.072 0.115 0.11 0.173 0.025 0.039 0.041 0.08 0.07 0.118 4e-3 6e-3 0.011 0.01 0.015 0.015 7e-3 0.01 0.013 0.021 0.021 0.03 0.044 0.056 0.101 0.105 0.153 0.158 0.046 0.047 0.086 0.097 0.137 0.14 0.014 0.012 0.029 0.021 0.043 0.033 0.035 0.028 0.074 0.049 0.11 0.075 0.069 0.049 0.134 0.099 0.209 0.142 8e-3 4e-3 0.014 0.01 0.021 0.014l12.787 7.016c0.39 0.214 0.826 0.316 1.258 0.316 0.77 0 1.525-0.326 1.972-0.924 0.695-0.933 0.379-2.173-0.708-2.769l-6.057-3.321h94.336l-6.057 3.322c-1.088 0.596-1.405 1.836-0.708 2.769 0.447 0.598 1.2 0.924 1.972 0.924 0.431 0 0.867-0.102 1.258-0.316l12.787-7.016c8e-3 -4e-3 0.014-0.01 0.021-0.014 0.075-0.043 0.141-0.094 0.21-0.143 0.035-0.025 0.075-0.046 0.11-0.073 0.014-0.012 0.029-0.022 0.044-0.035 0.046-0.038 0.082-0.084 0.123-0.125 0.057-0.058 0.119-0.112 0.167-0.173 7e-3 -0.01 0.013-0.02 0.02-0.029 5e-3 -5e-3 0.011-9e-3 0.015-0.015 0.027-0.036 0.042-0.075 0.067-0.111 0.039-0.061 0.083-0.118 0.115-0.181 7e-3 -0.014 0.011-0.027 0.016-0.04 0.026-0.056 0.042-0.112 0.063-0.169 0.02-0.054 0.043-0.106 0.057-0.161 4e-3 -0.015 6e-3 -0.029 9e-3 -0.044 0.013-0.061 0.016-0.12 0.023-0.181 7e-3 -0.058 0.018-0.113 0.019-0.171 0-7e-3 2e-3 -0.014 2e-3 -0.021s-5e-3 -0.013-5e-3 -0.02z"/>
	</g>
	<g transform="translate(-2)" fill="#fff">
		<path d="m83.561 141.3c0 0.121-0.023 0.242-0.07 0.363l-2.716 7.057c-0.122 0.317-0.325 0.571-0.609 0.763-0.285 0.191-0.591 0.287-0.917 0.287h-0.196c-0.327 0-0.632-0.096-0.917-0.287s-0.488-0.445-0.609-0.763l-2.73-7.057c-0.047-0.093-0.07-0.214-0.07-0.363 0-0.252 0.096-0.488 0.287-0.707 0.191-0.22 0.446-0.329 0.763-0.329 0.214 0 0.415 0.061 0.602 0.182s0.317 0.289 0.392 0.503l2.38 6.567 2.366-6.567c0.075-0.205 0.203-0.37 0.385-0.496s0.38-0.188 0.595-0.188c0.317 0 0.574 0.104 0.77 0.314 0.196 0.209 0.294 0.45 0.294 0.721z"/>
		<path d="m86.557 149.48c-0.196 0.191-0.434 0.287-0.714 0.287-0.271 0-0.501-0.096-0.693-0.287s-0.287-0.422-0.287-0.693v-7.546c0-0.271 0.098-0.501 0.294-0.692s0.434-0.287 0.714-0.287c0.271 0 0.501 0.096 0.693 0.287s0.287 0.422 0.287 0.692v7.546c-1e-3 0.272-0.099 0.502-0.294 0.693z"/>
		<path d="m95.754 146.86c0 0.429-0.077 0.825-0.231 1.188-0.154 0.364-0.385 0.679-0.693 0.944-0.308 0.266-0.698 0.476-1.169 0.63-0.472 0.153-1.02 0.23-1.645 0.23-0.336 0-0.686-0.028-1.05-0.085-0.364-0.056-0.712-0.136-1.043-0.239-0.332-0.104-0.625-0.23-0.882-0.382-0.257-0.15-0.451-0.324-0.581-0.521-0.103-0.15-0.154-0.311-0.154-0.48 0-0.271 0.095-0.492 0.287-0.665s0.408-0.259 0.651-0.259c0.093 0 0.187 0.012 0.28 0.035s0.177 0.063 0.252 0.119c0.317 0.215 0.672 0.39 1.064 0.524 0.392 0.136 0.817 0.203 1.274 0.203 0.271 0 0.509-0.027 0.714-0.083s0.375-0.132 0.511-0.229c0.135-0.097 0.236-0.208 0.301-0.333s0.098-0.252 0.098-0.382c0-0.203-0.077-0.37-0.231-0.499-0.154-0.13-0.357-0.238-0.609-0.326-0.252-0.089-0.539-0.167-0.861-0.236s-0.651-0.151-0.987-0.244c-0.336-0.094-0.665-0.206-0.987-0.337s-0.609-0.299-0.861-0.504c-0.252-0.206-0.455-0.46-0.609-0.764s-0.231-0.675-0.231-1.114c0-0.392 0.082-0.759 0.245-1.1s0.396-0.643 0.7-0.903c0.303-0.262 0.674-0.468 1.113-0.617 0.438-0.149 0.933-0.224 1.484-0.224 0.261 0 0.553 0.021 0.875 0.063s0.632 0.108 0.931 0.197c0.298 0.089 0.574 0.2 0.826 0.332 0.252 0.131 0.443 0.282 0.574 0.451 0.112 0.142 0.168 0.301 0.168 0.479 0 0.272-0.105 0.49-0.316 0.653s-0.438 0.245-0.681 0.245c-0.178 0-0.347-0.047-0.506-0.141-0.328-0.187-0.667-0.321-1.018-0.405s-0.7-0.126-1.046-0.126c-0.43 0-0.76 0.086-0.99 0.258-0.229 0.172-0.344 0.396-0.344 0.676 0 0.186 0.077 0.337 0.231 0.453 0.155 0.116 0.358 0.216 0.611 0.299 0.252 0.084 0.54 0.161 0.863 0.23s0.65 0.151 0.982 0.244c0.332 0.094 0.66 0.208 0.982 0.343s0.61 0.308 0.863 0.518c0.252 0.21 0.456 0.467 0.611 0.77 0.157 0.305 0.234 0.676 0.234 1.114z"/>
		<path d="m98.792 149.48c-0.196 0.191-0.435 0.287-0.715 0.287-0.271 0-0.501-0.096-0.692-0.287s-0.287-0.422-0.287-0.693v-7.546c0-0.271 0.098-0.501 0.294-0.692s0.434-0.287 0.714-0.287c0.271 0 0.502 0.096 0.693 0.287s0.287 0.422 0.287 0.692v7.546c0 0.272-0.098 0.502-0.294 0.693z"/>
		<path d="m107.91 141.23c0 0.243-0.084 0.448-0.252 0.616s-0.368 0.252-0.602 0.252h-1.946v6.678c0 0.271-0.099 0.504-0.296 0.7s-0.438 0.294-0.719 0.294c-0.272 0-0.508-0.098-0.705-0.294s-0.296-0.43-0.296-0.7v-6.678h-1.946c-0.243 0-0.448-0.086-0.616-0.259s-0.252-0.386-0.252-0.638c0-0.232 0.084-0.434 0.252-0.602s0.373-0.252 0.616-0.252h5.908c0.233 0 0.434 0.086 0.602 0.259s0.252 0.382 0.252 0.624z"/>
		<path d="m116.45 148.7c0 0.262-0.096 0.505-0.287 0.729s-0.45 0.336-0.776 0.336c-0.215 0-0.411-0.059-0.588-0.175-0.178-0.117-0.304-0.277-0.379-0.483l-0.363-1.008h-4.004l-0.378 1.008c-0.075 0.206-0.203 0.366-0.386 0.483-0.182 0.116-0.38 0.175-0.595 0.175-0.317 0-0.572-0.109-0.763-0.329-0.191-0.219-0.287-0.464-0.287-0.735 0-0.148 0.023-0.274 0.07-0.378l2.729-7.014c0.121-0.317 0.324-0.571 0.609-0.763 0.284-0.191 0.59-0.287 0.917-0.287 0.354-0.028 0.692 0.054 1.015 0.245s0.548 0.46 0.679 0.805l2.716 7.014c0.047 0.14 0.071 0.266 0.071 0.377zm-2.94-2.351-1.456-4.018-1.456 4.018z"/>
		<path d="m78.139 156.1c0 0.121-0.023 0.242-0.07 0.363l-2.716 7.057c-0.122 0.317-0.325 0.571-0.609 0.763-0.285 0.191-0.591 0.287-0.917 0.287h-0.197c-0.327 0-0.632-0.096-0.917-0.287s-0.488-0.445-0.609-0.763l-2.73-7.057c-0.047-0.093-0.07-0.214-0.07-0.363 0-0.252 0.096-0.488 0.287-0.707 0.191-0.22 0.446-0.329 0.763-0.329 0.214 0 0.415 0.061 0.602 0.182s0.317 0.289 0.392 0.503l2.38 6.567 2.366-6.567c0.075-0.205 0.203-0.37 0.385-0.496s0.38-0.188 0.595-0.188c0.317 0 0.574 0.104 0.77 0.314 0.197 0.21 0.295 0.451 0.295 0.721z"/>
		<path d="m81.134 164.28c-0.196 0.191-0.434 0.287-0.714 0.287-0.271 0-0.501-0.096-0.693-0.287s-0.287-0.422-0.287-0.693v-7.546c0-0.271 0.098-0.501 0.294-0.692s0.434-0.287 0.714-0.287c0.271 0 0.501 0.096 0.693 0.287s0.287 0.422 0.287 0.692v7.546c0 0.271-0.098 0.502-0.294 0.693z"/>
		<path d="m90.766 158.16c0 0.411-0.059 0.775-0.175 1.092-0.117 0.317-0.273 0.591-0.469 0.819s-0.416 0.415-0.658 0.56c-0.243 0.146-0.49 0.245-0.742 0.302l1.288 2.184c0.084 0.159 0.126 0.317 0.126 0.476 0 0.243-0.089 0.468-0.266 0.673s-0.414 0.308-0.712 0.308c-0.177 0-0.34-0.044-0.488-0.133-0.149-0.089-0.27-0.212-0.363-0.371l-1.591-2.898h-1.452v2.422c0 0.271-0.098 0.502-0.294 0.693s-0.434 0.287-0.714 0.287c-0.271 0-0.501-0.096-0.693-0.287s-0.287-0.422-0.287-0.693v-7.321c0-0.309 0.109-0.572 0.329-0.791 0.219-0.22 0.482-0.329 0.79-0.329h3.242c0.484 0 0.92 0.074 1.307 0.224s0.715 0.359 0.985 0.63 0.478 0.591 0.622 0.959c0.143 0.366 0.215 0.765 0.215 1.194zm-3.416-1.26h-2.086v2.52h2.086c0.401 0 0.735-0.111 1.001-0.336 0.266-0.224 0.399-0.531 0.399-0.924 0-0.392-0.133-0.7-0.399-0.924s-0.6-0.336-1.001-0.336z"/>
		<path d="m99.109 156.03c0 0.243-0.084 0.448-0.252 0.616s-0.368 0.252-0.602 0.252h-1.945v6.678c0 0.271-0.099 0.504-0.296 0.7s-0.437 0.294-0.719 0.294c-0.272 0-0.508-0.098-0.705-0.294s-0.296-0.43-0.296-0.7v-6.678h-1.946c-0.243 0-0.448-0.086-0.616-0.259s-0.252-0.386-0.252-0.638c0-0.232 0.084-0.434 0.252-0.602s0.373-0.252 0.616-0.252h5.908c0.233 0 0.434 0.086 0.602 0.259s0.251 0.382 0.251 0.624z"/>
		<path d="m108.45 162.34c-0.172 0.481-0.434 0.895-0.783 1.239-0.351 0.346-0.789 0.611-1.316 0.798s-1.146 0.28-1.854 0.28c-0.71 0-1.328-0.096-1.855-0.287s-0.966-0.457-1.316-0.798-0.611-0.749-0.783-1.225c-0.173-0.477-0.26-1.004-0.26-1.582v-4.704c0-0.271 0.099-0.504 0.294-0.7 0.196-0.196 0.439-0.294 0.729-0.294 0.271 0 0.504 0.098 0.7 0.295 0.195 0.196 0.294 0.43 0.294 0.701v4.642c0 0.654 0.185 1.186 0.555 1.592 0.369 0.407 0.92 0.61 1.65 0.61 0.729 0 1.277-0.203 1.643-0.61 0.365-0.406 0.548-0.938 0.548-1.592v-4.642c0-0.271 0.098-0.505 0.292-0.701 0.194-0.197 0.44-0.295 0.737-0.295 0.269 0 0.5 0.098 0.695 0.294 0.194 0.196 0.292 0.43 0.292 0.7v4.689c-2e-3 0.58-0.089 1.109-0.262 1.59z"/>
		<path d="m118.35 163.5c0 0.262-0.096 0.505-0.287 0.729s-0.45 0.336-0.777 0.336c-0.215 0-0.411-0.059-0.588-0.175-0.178-0.117-0.304-0.277-0.378-0.483l-0.364-1.008h-4.004l-0.378 1.008c-0.075 0.206-0.203 0.366-0.385 0.483-0.183 0.116-0.381 0.175-0.595 0.175-0.318 0-0.572-0.109-0.764-0.329-0.191-0.219-0.287-0.464-0.287-0.735 0-0.148 0.023-0.274 0.07-0.378l2.73-7.014c0.121-0.317 0.323-0.571 0.608-0.763s0.59-0.287 0.917-0.287c0.354-0.028 0.693 0.054 1.016 0.245 0.321 0.191 0.548 0.46 0.679 0.805l2.716 7.014c0.047 0.139 0.071 0.265 0.071 0.377zm-2.941-2.352-1.456-4.018-1.456 4.018z"/>
		
	<path d="m125.25 146.86c0 0.429-0.077 0.825-0.231 1.188-0.154 0.364-0.385 0.679-0.693 0.944-0.308 0.266-0.698 0.476-1.169 0.63-0.472 0.153-1.02 0.23-1.645 0.23-0.336 0-0.686-0.028-1.05-0.085-0.364-0.056-0.712-0.136-1.043-0.239-0.332-0.104-0.625-0.23-0.882-0.382-0.257-0.15-0.451-0.324-0.581-0.521-0.103-0.15-0.154-0.311-0.154-0.48 0-0.271 0.095-0.492 0.287-0.665s0.408-0.259 0.651-0.259c0.093 0 0.187 0.012 0.28 0.035s0.177 0.063 0.252 0.119c0.317 0.215 0.672 0.39 1.064 0.524 0.392 0.136 0.817 0.203 1.274 0.203 0.271 0 0.509-0.027 0.714-0.083s0.375-0.132 0.511-0.229c0.135-0.097 0.236-0.208 0.301-0.333s0.098-0.252 0.098-0.382c0-0.203-0.077-0.37-0.231-0.499-0.154-0.13-0.357-0.238-0.609-0.326-0.252-0.089-0.539-0.167-0.861-0.236s-0.651-0.151-0.987-0.244c-0.336-0.094-0.665-0.206-0.987-0.337s-0.609-0.299-0.861-0.504c-0.252-0.206-0.455-0.46-0.609-0.764s-0.231-0.675-0.231-1.114c0-0.392 0.082-0.759 0.245-1.1s0.396-0.643 0.7-0.903c0.303-0.262 0.674-0.468 1.113-0.617 0.438-0.149 0.933-0.224 1.484-0.224 0.261 0 0.553 0.021 0.875 0.063s0.632 0.108 0.931 0.197c0.298 0.089 0.574 0.2 0.826 0.332 0.252 0.131 0.443 0.282 0.574 0.451 0.112 0.142 0.168 0.301 0.168 0.479 0 0.272-0.105 0.49-0.316 0.653s-0.438 0.245-0.681 0.245c-0.178 0-0.347-0.047-0.506-0.141-0.328-0.187-0.667-0.321-1.018-0.405s-0.7-0.126-1.046-0.126c-0.43 0-0.76 0.086-0.99 0.258-0.229 0.172-0.344 0.396-0.344 0.676 0 0.186 0.077 0.337 0.231 0.453 0.155 0.116 0.358 0.216 0.611 0.299 0.252 0.084 0.54 0.161 0.863 0.23s0.65 0.151 0.982 0.244c0.332 0.094 0.66 0.208 0.982 0.343s0.61 0.308 0.863 0.518c0.252 0.21 0.456 0.467 0.611 0.77 0.157 0.305 0.234 0.676 0.234 1.114z"/><path d="m121.33 164.28c-0.196 0.191-0.434 0.287-0.714 0.287-0.271 0-0.501-0.096-0.693-0.287s-0.287-0.422-0.287-0.693v-7.546c0-0.271 0.098-0.501 0.294-0.692s0.434-0.287 0.714-0.287c0.271 0 0.501 0.096 0.693 0.287s0.287 0.422 0.287 0.692v7.546c0 0.271-0.098 0.502-0.294 0.693z"/><path d="m130.55 161.76c0 0.429-0.077 0.825-0.231 1.188-0.154 0.364-0.385 0.679-0.693 0.944-0.308 0.266-0.698 0.476-1.169 0.63-0.472 0.153-1.02 0.23-1.645 0.23-0.336 0-0.686-0.028-1.05-0.085-0.364-0.056-0.712-0.136-1.043-0.239-0.332-0.104-0.625-0.23-0.882-0.382-0.257-0.15-0.451-0.324-0.581-0.521-0.103-0.15-0.154-0.311-0.154-0.48 0-0.271 0.095-0.492 0.287-0.665s0.408-0.259 0.651-0.259c0.093 0 0.187 0.012 0.28 0.035s0.177 0.063 0.252 0.119c0.317 0.215 0.672 0.39 1.064 0.524 0.392 0.136 0.817 0.203 1.274 0.203 0.271 0 0.509-0.027 0.714-0.083s0.375-0.132 0.511-0.229c0.135-0.097 0.236-0.208 0.301-0.333s0.098-0.252 0.098-0.382c0-0.203-0.077-0.37-0.231-0.499-0.154-0.13-0.357-0.238-0.609-0.326-0.252-0.089-0.539-0.167-0.861-0.236s-0.651-0.151-0.987-0.244c-0.336-0.094-0.665-0.206-0.987-0.337s-0.609-0.299-0.861-0.504c-0.252-0.206-0.455-0.46-0.609-0.764s-0.231-0.675-0.231-1.114c0-0.392 0.082-0.759 0.245-1.1s0.396-0.643 0.7-0.903c0.303-0.262 0.674-0.468 1.113-0.617 0.438-0.149 0.933-0.224 1.484-0.224 0.261 0 0.553 0.021 0.875 0.063s0.632 0.108 0.931 0.197c0.298 0.089 0.574 0.2 0.826 0.332 0.252 0.131 0.443 0.282 0.574 0.451 0.112 0.142 0.168 0.301 0.168 0.479 0 0.272-0.105 0.49-0.316 0.653s-0.438 0.245-0.681 0.245c-0.178 0-0.347-0.047-0.506-0.141-0.328-0.187-0.667-0.321-1.018-0.405s-0.7-0.126-1.046-0.126c-0.43 0-0.76 0.086-0.99 0.258-0.229 0.172-0.344 0.396-0.344 0.676 0 0.186 0.077 0.337 0.231 0.453 0.155 0.116 0.358 0.216 0.611 0.299 0.252 0.084 0.54 0.161 0.863 0.23s0.65 0.151 0.982 0.244c0.332 0.094 0.66 0.208 0.982 0.343s0.61 0.308 0.863 0.518c0.252 0.21 0.456 0.467 0.611 0.77 0.157 0.305 0.234 0.676 0.234 1.114z"/></g>

</svg>
