<?xml version="1.0" encoding="utf-8"?>
<!-- Generator: Adobe Illustrator 17.0.0, SVG Export Plug-In . SVG Version: 6.00 Build 0)  -->
<!DOCTYPE svg PUBLIC "-//W3C//DTD SVG 1.1//EN" "http://www.w3.org/Graphics/SVG/1.1/DTD/svg11.dtd">
<svg version="1.1" id="Layer_1" xmlns="http://www.w3.org/2000/svg" xmlns:xlink="http://www.w3.org/1999/xlink" x="0px" y="0px"
	 width="195px" height="195px" viewBox="0 0 195 195" enable-background="new 0 0 195 195" xml:space="preserve">
<g>
	<path fill="#3C3C3B" d="M195,125.184V69.816c0-8.133-3.231-15.933-8.982-21.684L146.868,8.982C141.117,3.231,133.317,0,125.184,0
		H69.816c-8.133,0-15.933,3.231-21.684,8.982L8.982,48.132C3.231,53.883,0,61.683,0,69.816v55.367
		c0,8.133,3.231,15.933,8.982,21.684l39.151,39.151C53.883,191.769,61.683,195,69.816,195h55.367c8.133,0,15.933-3.231,21.684-8.982
		l39.151-39.151C191.769,141.117,195,133.317,195,125.184z"/>
	<g>
		<g>
			<path fill="#FFDD00" d="M68.636,65.672v10.775c0,1.956-1.596,3.592-3.592,3.592c-1.996,0-3.592-1.636-3.592-3.592v-8.061
				c0-1.157-0.599-2.155-2.195-2.155c-1.596,0-2.474,0.958-2.953,1.516v8.7c0,1.956-1.596,3.592-3.592,3.592
				c-1.995,0-3.592-1.636-3.592-3.592v-8.061c0-1.157-0.558-2.155-2.195-2.155c-1.556,0-2.434,0.958-2.914,1.516v8.7
				c0,1.956-1.596,3.592-3.592,3.592c-1.995,0-3.591-1.636-3.591-3.592v-12.89c0-2.075,1.516-3.751,3.591-3.751
				c1.716,0,3.153,1.157,3.592,2.753c0.838-1.078,3.273-2.674,6.385-2.674c2.714,0,4.669,0.998,5.547,3.392
				c1.117-1.676,3.631-3.392,6.744-3.392C66.241,59.885,68.636,61.681,68.636,65.672z"/>
			<path fill="#FFDD00" d="M92.82,63.557v12.89c0,2.075-1.516,3.751-3.592,3.751c-1.716,0-3.153-1.117-3.592-2.714
				c-1.117,1.237-3.232,2.634-6.624,2.634c-4.47,0-6.385-2.674-6.385-5.986V63.557c0-1.956,1.596-3.592,3.592-3.592
				c1.995,0,3.592,1.636,3.592,3.592v7.502c0,1.956,1.038,2.714,2.793,2.714c1.596,0,2.434-0.838,3.033-1.516v-8.7
				c0-1.956,1.596-3.592,3.592-3.592C91.224,59.965,92.82,61.601,92.82,63.557z"/>
			<path fill="#FFDD00" d="M95.854,75.968c0-1.556,1.277-2.833,2.833-2.833c0.439,0,0.838,0.12,1.197,0.279
				c1.716,0.798,3.671,1.357,5.108,1.357c1.476,0,1.916-0.399,1.916-0.918c0-0.639-0.878-0.878-2.714-1.118
				c-3.233-0.439-8.221-1.038-8.221-6.265c0-3.472,3.033-6.584,8.62-6.584c2.195,0,4.27,0.479,6.146,1.317
				c0.918,0.399,1.596,1.317,1.596,2.394c0,1.437-1.197,2.634-2.634,2.634c-0.399,0-0.798-0.08-1.117-0.239
				c-1.197-0.598-2.594-0.958-3.951-0.958c-1.038,0-1.796,0.279-1.796,0.838c0,0.559,0.558,0.798,2.474,1.078
				c3.233,0.479,8.46,1.157,8.46,6.544c0,3.831-3.432,6.625-9.139,6.625c-2.434,0-4.988-0.558-7.104-1.556
				C96.572,78.123,95.854,77.125,95.854,75.968z"/>
			<path fill="#FFDD00" d="M125.545,59.885c5.667,0,10.017,4.07,10.017,8.819c0,2.714-1.516,3.512-4.27,3.512h-8.819
				c0.399,1.237,1.795,2.434,4.23,2.434c0.958,0,1.916-0.199,2.833-0.558c0.279-0.12,0.639-0.2,0.998-0.2
				c1.477,0,2.714,1.197,2.714,2.714c0,1.117-0.758,2.115-1.756,2.514c-1.836,0.679-3.871,0.998-5.707,0.998
				c-6.026,0-10.735-3.791-10.735-10.136C115.049,64.395,119.319,59.885,125.545,59.885z M122.392,67.667h6.345
				c-0.2-0.838-0.878-2.315-3.193-2.315C123.35,65.352,122.632,66.789,122.392,67.667z"/>
			<path fill="#FFDD00" d="M158.229,63.557v12.89c0,2.075-1.516,3.751-3.592,3.751c-1.716,0-3.153-1.117-3.592-2.714
				c-1.117,1.237-3.232,2.634-6.624,2.634c-4.47,0-6.385-2.674-6.385-5.986V63.557c0-1.956,1.596-3.592,3.592-3.592
				c1.996,0,3.592,1.636,3.592,3.592v7.502c0,1.956,1.038,2.714,2.793,2.714c1.596,0,2.434-0.838,3.033-1.516v-8.7
				c0-1.956,1.596-3.592,3.592-3.592C156.633,59.965,158.229,61.601,158.229,63.557z"/>
		</g>
		<g>
			<path fill="#FFFFFF" d="M49.781,113.925v-8.611H37.303v8.611c0,0.22-0.192,0.439-0.439,0.439c-0.247,0-0.439-0.22-0.439-0.439
				V96.401c0-0.219,0.192-0.439,0.439-0.439c0.247,0,0.439,0.22,0.439,0.439v8.09h12.478v-8.09c0-0.219,0.192-0.439,0.439-0.439
				c0.247,0,0.439,0.22,0.439,0.439v17.524c0,0.22-0.192,0.439-0.439,0.439C49.973,114.364,49.781,114.144,49.781,113.925z"/>
			<path fill="#FFFFFF" d="M56.855,113.925V96.401c0-0.219,0.192-0.439,0.439-0.439c0.247,0,0.439,0.22,0.439,0.439v17.524
				c0,0.22-0.192,0.439-0.439,0.439C57.047,114.364,56.855,114.144,56.855,113.925z"/>
			<path fill="#FFFFFF" d="M63.134,111.758c0-0.274,0.219-0.494,0.466-0.494c0.137,0,0.274,0.055,0.357,0.165
				c1.179,1.261,2.989,2.386,5.402,2.386c4.223,0,5.293-2.413,5.293-4.141c0-2.962-2.66-3.757-5.375-4.525
				c-2.825-0.795-5.732-1.591-5.732-4.772c0-2.962,2.715-4.662,5.732-4.662c2.496,0,4.333,0.85,5.649,2.276
				c0.082,0.082,0.137,0.192,0.137,0.302c0,0.247-0.22,0.466-0.466,0.466c-0.137,0-0.274-0.055-0.357-0.165
				c-1.289-1.453-3.017-2.057-4.964-2.057c-2.66,0-4.772,1.591-4.772,3.839c0,2.468,2.468,3.154,5.073,3.894
				c2.935,0.85,6.034,1.783,6.034,5.402c0,2.057-1.316,4.964-6.253,4.964c-2.633,0-4.744-1.069-6.116-2.578
				C63.162,111.978,63.134,111.868,63.134,111.758z"/>
			<path fill="#FFFFFF" d="M85.868,113.925V96.839h-5.814c-0.219,0-0.411-0.192-0.411-0.411c0-0.22,0.192-0.411,0.411-0.411h12.533
				c0.219,0,0.411,0.192,0.411,0.411c0,0.22-0.192,0.411-0.411,0.411h-5.842v17.085c0,0.22-0.192,0.439-0.439,0.439
				C86.06,114.364,85.868,114.144,85.868,113.925z"/>
			<path fill="#FFFFFF" d="M105.008,95.715c5.293,0,8.694,4.168,8.694,9.461c0,5.293-3.401,9.461-8.694,9.461
				c-5.32,0-8.693-4.168-8.693-9.461C96.315,99.884,99.688,95.715,105.008,95.715z M105.008,96.538c-4.744,0-7.733,3.62-7.733,8.639
				c0,4.964,2.989,8.639,7.733,8.639c4.69,0,7.734-3.675,7.734-8.639C112.742,100.158,109.698,96.538,105.008,96.538z
				 M105.228,94.536c-0.137,0-0.274-0.137-0.274-0.274c0-0.082,0.055-0.165,0.11-0.22l3.839-3.455
				c0.082-0.082,0.165-0.11,0.247-0.11c0.22,0,0.412,0.192,0.412,0.412c0,0.11-0.082,0.247-0.165,0.302l-3.976,3.263
				C105.365,94.509,105.31,94.536,105.228,94.536z"/>
			<path fill="#FFFFFF" d="M130.868,113.623c0.055,0.055,0.082,0.165,0.082,0.274c0,0.247-0.192,0.466-0.439,0.466
				c-0.165,0-0.302-0.055-0.384-0.192l-5.43-7.761h-4.553v7.514c0,0.22-0.192,0.439-0.439,0.439c-0.247,0-0.439-0.22-0.439-0.439
				V96.511c0-0.302,0.192-0.494,0.494-0.494h5.814c2.962,0,5.402,1.837,5.402,5.183c0,3.291-2.386,5.156-5.265,5.21L130.868,113.623
				z M120.145,105.588h5.43c2.688,0,4.443-1.865,4.443-4.388s-1.755-4.361-4.443-4.361h-5.43V105.588z"/>
			<path fill="#FFFFFF" d="M136.516,113.925V96.401c0-0.219,0.192-0.439,0.439-0.439c0.247,0,0.439,0.22,0.439,0.439v17.524
				c0,0.22-0.192,0.439-0.439,0.439C136.708,114.364,136.516,114.144,136.516,113.925z"/>
			<path fill="#FFFFFF" d="M157.824,113.87c0,0.274-0.192,0.494-0.466,0.494c-0.192,0-0.384-0.137-0.439-0.302l-1.92-4.662h-10.202
				l-1.92,4.662c-0.055,0.165-0.247,0.302-0.439,0.302c-0.274,0-0.466-0.22-0.466-0.466c0-0.055,0-0.11,0.055-0.247l7.185-17.222
				c0.11-0.274,0.384-0.466,0.685-0.466c0.302,0,0.576,0.192,0.686,0.466l7.185,17.222
				C157.797,113.705,157.824,113.788,157.824,113.87z M154.67,108.577l-4.772-11.546l-4.772,11.546H154.67z"/>
			<path fill="#FFFFFF" d="M36.425,134.743v-17.304c0-0.302,0.192-0.494,0.494-0.494h4.936c5.677,0,9.105,4.278,9.105,9.159
				c0,4.936-3.428,9.132-9.105,9.132h-4.936C36.617,135.236,36.425,135.044,36.425,134.743z M41.855,134.414
				c5.183,0,8.145-3.675,8.145-8.309c0-4.58-2.962-8.337-8.145-8.337h-4.553v16.646H41.855z"/>
			<path fill="#FFFFFF" d="M67.057,134.798c0,0.274-0.192,0.494-0.466,0.494c-0.192,0-0.384-0.137-0.439-0.302l-1.92-4.662H54.031
				l-1.92,4.662c-0.055,0.165-0.247,0.302-0.439,0.302c-0.274,0-0.466-0.22-0.466-0.466c0-0.055,0-0.11,0.055-0.247l7.185-17.222
				c0.11-0.274,0.384-0.466,0.685-0.466s0.576,0.192,0.686,0.466l7.185,17.222C67.03,134.633,67.057,134.715,67.057,134.798z
				 M63.903,129.505l-4.772-11.546l-4.772,11.546H63.903z"/>
			<path fill="#FFFFFF" d="M74.24,126.104c0-5.622,4.059-9.461,9.132-9.461c2.413,0,4.47,0.905,6.088,2.578
				c0.082,0.082,0.11,0.192,0.11,0.302c0,0.247-0.192,0.439-0.439,0.439c-0.137,0-0.247-0.027-0.329-0.137
				c-1.344-1.454-3.319-2.359-5.43-2.359c-4.58,0-8.172,3.483-8.172,8.639c0,5.101,3.592,8.639,8.172,8.639
				c2.111,0,4.114-0.905,5.43-2.386c0.082-0.11,0.192-0.137,0.329-0.137c0.247,0,0.467,0.192,0.467,0.439
				c0,0.137-0.055,0.247-0.137,0.329c-1.7,1.728-3.675,2.578-6.088,2.578C78.299,135.565,74.24,131.726,74.24,126.104z"/>
			<path fill="#FFFFFF" d="M91.9,134.852v-17.524c0-0.219,0.192-0.439,0.439-0.439c0.247,0,0.439,0.22,0.439,0.439v17.524
				c0,0.22-0.192,0.439-0.439,0.439C92.092,135.291,91.9,135.072,91.9,134.852z"/>
			<path fill="#FFFFFF" d="M96.343,134.743v-17.304c0-0.302,0.192-0.494,0.494-0.494h4.936c5.677,0,9.105,4.278,9.105,9.159
				c0,4.936-3.428,9.132-9.105,9.132h-4.936C96.535,135.236,96.343,135.044,96.343,134.743z M101.772,134.414
				c5.183,0,8.145-3.675,8.145-8.309c0-4.58-2.962-8.337-8.145-8.337H97.22v16.646H101.772z"/>
			<path fill="#FFFFFF" d="M126.974,134.798c0,0.274-0.192,0.494-0.466,0.494c-0.192,0-0.384-0.137-0.439-0.302l-1.92-4.662h-10.202
				l-1.92,4.662c-0.055,0.165-0.247,0.302-0.439,0.302c-0.274,0-0.466-0.22-0.466-0.466c0-0.055,0-0.11,0.055-0.247l7.185-17.222
				c0.11-0.274,0.384-0.466,0.685-0.466c0.302,0,0.576,0.192,0.686,0.466l7.185,17.222
				C126.947,134.633,126.974,134.715,126.974,134.798z M123.82,129.505l-4.772-11.546l-4.772,11.546H123.82z"/>
			<path fill="#FFFFFF" d="M128.92,134.743v-17.304c0-0.302,0.192-0.494,0.494-0.494h4.936c5.677,0,9.105,4.278,9.105,9.159
				c0,4.936-3.428,9.132-9.105,9.132h-4.936C129.112,135.236,128.92,135.044,128.92,134.743z M134.35,134.414
				c5.183,0,8.145-3.675,8.145-8.309c0-4.58-2.962-8.337-8.145-8.337h-4.553v16.646H134.35z"/>
			<path fill="#FFFFFF" d="M146.415,134.743v-17.304c0-0.302,0.192-0.494,0.494-0.494h10.339c0.22,0,0.411,0.192,0.411,0.411
				c0,0.22-0.192,0.411-0.411,0.411h-9.955v7.652h9.763c0.22,0,0.412,0.192,0.412,0.411c0,0.22-0.192,0.411-0.412,0.411h-9.763
				v8.172h9.955c0.22,0,0.411,0.192,0.411,0.412c0,0.219-0.192,0.411-0.411,0.411h-10.339
				C146.607,135.236,146.415,135.044,146.415,134.743z"/>
		</g>
	</g>
</g>
</svg>
